Coordinates
version=1
nRows=8
nColumns=40
inDegrees=yes

Units are S.I. units (second, meters, Newtons, ...)
Angles are in degrees.

endheader
time	pelvis_tilt	pelvis_list	pelvis_rotation	pelvis_tx	pelvis_ty	pelvis_tz	hip_flexion_r	hip_adduction_r	hip_rotation_r	knee_angle_r	knee_angle_r_beta	ankle_angle_r	subtalar_angle_r	mtp_angle_r	hip_flexion_l	hip_adduction_l	hip_rotation_l	knee_angle_l	knee_angle_l_beta	ankle_angle_l	subtalar_angle_l	mtp_angle_l	lumbar_extension	lumbar_bending	lumbar_rotation	arm_flex_r	arm_add_r	arm_rot_r	elbow_flex_r	pro_sup_r	wrist_flex_r	wrist_dev_r	arm_flex_l	arm_add_l	arm_rot_l	elbow_flex_l	pro_sup_l	wrist_flex_l	wrist_dev_l
      0.93000000	      3.17394126	      1.00000306	     -6.15264705	     -0.14271121	      0.90324621	     -1.44369098	     20.33480298	     -0.75812884	     -3.34752026	    -55.21856015	     -0.96374568	      1.52997269	    -13.79486310	      8.25962854	     -3.19656991	     -4.91981396	      8.47684964	    -14.55981723	     -0.25411675	     11.65967899	      0.26367522	     -1.97992164	     -7.88215751	      1.16269009	     -2.49018833	      6.21176491	     -9.18539219	     17.96619248	     18.14234892	     89.95437384	      0.00000000	      0.00000000	      5.98969279	     10.04363752	    -14.97473750	     16.39287827	     89.95437384	      0.00000000	      0.00000000
      0.94000000	      2.73471240	      1.16399824	     -5.82506805	     -0.13027609	      0.90194210	     -1.44468258	     22.00228549	     -0.86734909	     -3.87841187	    -53.06458725	     -0.92615176	      1.89988139	    -13.45936546	      8.14369638	     -3.73698195	     -5.16187778	      8.66130752	    -14.29779544	     -0.24954361	     11.92168916	      0.10064829	     -2.03212358	     -7.41574030	      1.14813177	     -2.64996583	      5.32483739	     -9.36817631	     17.89644232	     17.90457550	     89.95437384	      0.00000000	      0.00000000	      7.16581322	     10.28705755	    -14.68876197	     17.55178759	     89.95437384	      0.00000000	      0.00000000
      0.95000000	      3.40192946	      0.44441707	     -5.01473499	     -0.11667696	      0.90249969	     -1.44563318	     21.66402590	     -0.22569588	     -5.04540064	    -49.84058691	     -0.86988234	      2.28141972	    -13.15346273	      8.11204706	     -6.05171258	     -4.49347170	      8.06879633	    -13.29899914	     -0.23211132	     12.14367190	     -0.75677401	     -2.28513731	     -8.25029202	      2.03331802	     -3.41390373	      4.70647665	     -9.42020287	     17.18789138	     17.49358087	     89.95437384	      0.00000000	      0.00000000	      8.07489658	     10.50450190	    -13.43741726	     19.27506319	     89.95437384	      0.00000000	      0.00000000
      0.96000000	      3.69044756	      0.12779315	     -4.38771106	     -0.10312573	      0.90201979	     -1.44634631	     21.87368971	      0.06492811	     -5.93352321	    -46.72671679	     -0.81553506	      2.43787312	    -12.53238819	      8.04510332	     -7.72180524	     -4.17623922	      8.05394268	    -12.62586394	     -0.22036290	     12.17329889	     -1.52384855	     -2.55526766	     -8.54720438	      2.45340254	     -3.81642058	      3.87226517	     -9.48633154	     16.66199934	     17.14170368	     89.95437384	      0.00000000	      0.00000000	      9.09978037	     10.71763288	    -12.65578980	     20.78385916	     89.95437384	      0.00000000	      0.00000000
      0.97000000	      3.74388314	     -0.04195424	     -3.73622716	     -0.09030703	      0.90088494	     -1.44721723	     22.42959497	      0.07882548	     -7.14384083	    -43.59801570	     -0.76092892	      2.23944028	    -11.78373424	      7.92232582	     -8.82323511	     -3.94857231	      8.01626668	    -12.40662491	     -0.21653645	     12.38731225	     -2.19754300	     -2.87652483	     -8.65942502	      2.74754049	     -4.23332926	      3.13936873	     -9.52595646	     16.24223688	     16.70580406	     89.95437384	      0.00000000	      0.00000000	     10.12260688	     10.97452013	    -12.07445031	     22.43366795	     89.95437384	      0.00000000	      0.00000000
      0.98000000	      3.28141534	      0.37722391	     -3.50609717	     -0.07767289	      0.89844728	     -1.44790039	     23.82729054	     -0.39816914	     -7.81620143	    -40.88799560	     -0.71363015	      2.38399838	    -11.30200937	      7.85907857	     -9.20882525	     -4.44959869	      8.24853682	    -12.37663602	     -0.21601305	     12.56701847	     -2.30635023	     -2.92637744	     -8.13804606	      2.37653462	     -4.11521406	      2.21676745	     -9.63465814	     16.21420025	     16.36077448	     89.95437384	      0.00000000	      0.00000000	     11.27819337	     11.15293056	    -11.88021687	     23.76468596	     89.95437384	      0.00000000	      0.00000000
      0.99000000	      3.91262010	     -0.35982830	     -2.43993942	     -0.06403506	      0.89814702	     -1.44860274	     23.05831027	      0.11629524	     -9.52557537	    -36.89928025	     -0.64401393	      1.81645364	     -9.68167092	      7.84267137	    -11.15408708	     -3.50577265	      7.83462914	    -11.91852450	     -0.20801749	     12.90439239	     -3.04535811	     -3.26535672	     -8.85980220	      3.26032015	     -5.01568367	      1.70551308	     -9.52682617	     15.74481098	     15.69408874	     89.95437384	      0.00000000	      0.00000000	     11.98787837	     11.56835809	    -11.44330158	     25.93901468	     89.95437384	      0.00000000	      0.00000000
      1.00000000	      4.26342693	     -0.40609365	     -1.75985803	     -0.05057584	      0.89702838	     -1.44937491	     22.90957321	     -0.13145204	    -11.20656712	    -33.49215079	     -0.58454830	      1.14294651	     -8.43510512	      7.78149781	    -12.61434313	     -3.32555304	      8.03228453	    -11.69611120	     -0.20413565	     12.73737425	     -3.92837524	     -3.59687773	     -9.22369332	      3.37714078	     -5.36029187	      0.93471503	     -9.50762814	     15.27338565	     15.29101825	     89.95437384	      0.00000000	      0.00000000	     12.95162011	     11.76946588	    -10.97511135	     27.63275424	     89.95437384	      0.00000000	      0.00000000
